HIERARCHY
ROOT Hips
{
	OFFSET 0.000000 0.000000 0.000000
	CHANNELS 6 Xposition Yposition Zposition Zrotation Yrotation Xrotation 
	JOINT Spine1
	{
		OFFSET -0.013727 5.003763 -0.053727
		CHANNELS 3 Zrotation Yrotation Xrotation
		JOINT Spine2
		{
			OFFSET -0.000000 7.125302 -0.029825
			CHANNELS 3 Zrotation Yrotation Xrotation
			JOINT Chest
			{
				OFFSET -0.000001 7.550065 -0.815971
				CHANNELS 3 Zrotation Yrotation Xrotation
				JOINT Neck1
				{
					OFFSET -0.181677 26.311296 -0.553349
					CHANNELS 3 Zrotation Yrotation Xrotation
					JOINT Neck2
					{
						OFFSET -0.000003 7.709399 2.302586
						CHANNELS 3 Zrotation Yrotation Xrotation
						JOINT Head
						{
							OFFSET -0.000005 6.128913 1.953709
							CHANNELS 3 Zrotation Yrotation Xrotation
							JOINT HeadEnd
							{
								OFFSET 0.003598 16.065401 -1.835379
								CHANNELS 3 Zrotation Yrotation Xrotation
								End Site
								{
									OFFSET 0.000000 0.000000 0.000000
								}
							}
							JOINT Jaw
							{
								OFFSET 0.002637 0.475592 3.094940
								CHANNELS 3 Zrotation Yrotation Xrotation
								End Site
								{
									OFFSET 0.000000 0.000000 0.000000
								}
							}
							JOINT LeftEye
							{
								OFFSET 3.206381 5.380207 7.586883
								CHANNELS 3 Zrotation Yrotation Xrotation
								End Site
								{
									OFFSET 0.000000 0.000000 0.000000
								}
							}
							JOINT RightEye
							{
								OFFSET -3.222440 5.361867 7.558233
								CHANNELS 3 Zrotation Yrotation Xrotation
								End Site
								{
									OFFSET 0.000000 0.000000 0.000000
								}
							}
						}
					}
				}
				JOINT LeftShoulder
				{
					OFFSET 1.621652 23.237164 5.113413
					CHANNELS 3 Zrotation Yrotation Xrotation
					JOINT LeftArm
					{
						OFFSET 14.919845 0.000000 -5.502326
						CHANNELS 3 Zrotation Yrotation Xrotation
						JOINT LeftForeArm
						{
							OFFSET 28.739309 0.000002 -0.002588
							CHANNELS 3 Zrotation Yrotation Xrotation
							JOINT LeftHand
							{
								OFFSET 27.093983 -0.000001 0.002610
								CHANNELS 3 Zrotation Yrotation Xrotation
								JOINT LeftHandThumb1
								{
									OFFSET 2.276480 -1.392045 3.191413
									CHANNELS 3 Zrotation Yrotation Xrotation
									JOINT LeftHandThumb2
									{
										OFFSET 4.012843 -1.828125 1.641656
										CHANNELS 3 Zrotation Yrotation Xrotation
										JOINT LeftHandThumb3
										{
											OFFSET 2.798517 0.000000 -0.000004
											CHANNELS 3 Zrotation Yrotation Xrotation
											JOINT LeftHandThumbEnd
											{
												OFFSET 3.180790 -0.000003 0.000003
												CHANNELS 3 Zrotation Yrotation Xrotation
												End Site
												{
													OFFSET 0.000000 0.000000 0.000000
												}
											}
										}
									}
								}
								JOINT LeftHandIndex1
								{
									OFFSET 3.247552 -0.531999 2.296169
									CHANNELS 3 Zrotation Yrotation Xrotation
									JOINT LeftHandIndex2
									{
										OFFSET 6.364580 0.012063 0.178599
										CHANNELS 3 Zrotation Yrotation Xrotation
										JOINT LeftHandIndex3
										{
											OFFSET 3.662366 0.000000 0.000001
											CHANNELS 3 Zrotation Yrotation Xrotation
											JOINT LeftHandIndex4
											{
												OFFSET 2.329243 0.000001 0.000004
												CHANNELS 3 Zrotation Yrotation Xrotation
												JOINT LeftHandIndexEnd
												{
													OFFSET 2.759619 -0.180538 -0.113023
													CHANNELS 3 Zrotation Yrotation Xrotation
													End Site
													{
														OFFSET 0.000000 0.000000 0.000000
													}
												}
											}
										}
									}
								}
								JOINT LeftHandMiddle1
								{
									OFFSET 3.163499 0.240982 1.000332
									CHANNELS 3 Zrotation Yrotation Xrotation
									JOINT LeftHandMiddle2
									{
										OFFSET 6.190778 -0.259277 -1.002548
										CHANNELS 3 Zrotation Yrotation Xrotation
										JOINT LeftHandMiddle3
										{
											OFFSET 4.356523 -0.000005 0.000001
											CHANNELS 3 Zrotation Yrotation Xrotation
											JOINT LeftHandMiddle4
											{
												OFFSET 2.996875 -0.000007 0.000000
												CHANNELS 3 Zrotation Yrotation Xrotation
												JOINT LeftHandMiddleEnd
												{
													OFFSET 2.304294 -0.294572 -0.031740
													CHANNELS 3 Zrotation Yrotation Xrotation
													End Site
													{
														OFFSET 0.000000 0.000000 0.000000
													}
												}
											}
										}
									}
								}
								JOINT LeftHandRing1
								{
									OFFSET 2.882642 -0.053650 -0.322543
									CHANNELS 3 Zrotation Yrotation Xrotation
									JOINT LeftHandRing2
									{
										OFFSET 5.854543 -0.486204 -1.373840
										CHANNELS 3 Zrotation Yrotation Xrotation
										JOINT LeftHandRing3
										{
											OFFSET 4.350580 0.000000 0.000003
											CHANNELS 3 Zrotation Yrotation Xrotation
											JOINT LeftHandRing4
											{
												OFFSET 2.651325 0.000008 0.000002
												CHANNELS 3 Zrotation Yrotation Xrotation
												JOINT LeftHandRingEnd
												{
													OFFSET 1.936111 0.077685 -0.000070
													CHANNELS 3 Zrotation Yrotation Xrotation
													End Site
													{
														OFFSET 0.000000 0.000000 0.000000
													}
												}
											}
										}
									}
								}
								JOINT LeftHandPinky1
								{
									OFFSET 2.865499 -0.310004 -1.600378
									CHANNELS 3 Zrotation Yrotation Xrotation
									JOINT LeftHandPinky2
									{
										OFFSET 5.087854 -1.331142 -1.771231
										CHANNELS 3 Zrotation Yrotation Xrotation
										JOINT LeftHandPinky3
										{
											OFFSET 3.070975 0.000004 0.000001
											CHANNELS 3 Zrotation Yrotation Xrotation
											JOINT LeftHandPinky4
											{
												OFFSET 1.549667 -0.000001 -0.000000
												CHANNELS 3 Zrotation Yrotation Xrotation
												JOINT LeftHandPinkyEnd
												{
													OFFSET 1.944894 -0.157801 0.057219
													CHANNELS 3 Zrotation Yrotation Xrotation
													End Site
													{
														OFFSET 0.000000 0.000000 0.000000
													}
												}
											}
										}
									}
								}
							}
						}
					}
				}
				JOINT RightShoulder
				{
					OFFSET -1.380118 23.180309 5.214157
					CHANNELS 3 Zrotation Yrotation Xrotation
					JOINT RightArm
					{
						OFFSET -15.037197 0.000011 -5.545604
						CHANNELS 3 Zrotation Yrotation Xrotation
						JOINT RightForeArm
						{
							OFFSET -28.736639 0.000003 -0.002597
							CHANNELS 3 Zrotation Yrotation Xrotation
							JOINT RightHand
							{
								OFFSET -27.133619 0.000000 0.002613
								CHANNELS 3 Zrotation Yrotation Xrotation
								JOINT RightHandThumb1
								{
									OFFSET -2.274037 -1.383990 3.163127
									CHANNELS 3 Zrotation Yrotation Xrotation
									JOINT RightHandThumb2
									{
										OFFSET -4.011428 -1.827468 1.640914
										CHANNELS 3 Zrotation Yrotation Xrotation
										JOINT RightHandThumb3
										{
											OFFSET -2.794935 -0.000002 -0.000003
											CHANNELS 3 Zrotation Yrotation Xrotation
											JOINT RightHandThumbEnd
											{
												OFFSET -3.183856 0.000004 -0.000001
												CHANNELS 3 Zrotation Yrotation Xrotation
												End Site
												{
													OFFSET 0.000000 0.000000 0.000000
												}
											}
										}
									}
								}
								JOINT RightHandIndex1
								{
									OFFSET -3.253269 -0.520060 2.282866
									CHANNELS 3 Zrotation Yrotation Xrotation
									JOINT RightHandIndex2
									{
										OFFSET -6.341917 0.012472 0.178265
										CHANNELS 3 Zrotation Yrotation Xrotation
										JOINT RightHandIndex3
										{
											OFFSET -3.654875 -0.000009 -0.000000
											CHANNELS 3 Zrotation Yrotation Xrotation
											JOINT RightHandIndex4
											{
												OFFSET -2.327586 0.000000 0.000000
												CHANNELS 3 Zrotation Yrotation Xrotation
												JOINT RightHandIndexEnd
												{
													OFFSET -2.761789 -0.180657 -0.113079
													CHANNELS 3 Zrotation Yrotation Xrotation
													End Site
													{
														OFFSET 0.000000 0.000000 0.000000
													}
												}
											}
										}
									}
								}
								JOINT RightHandMiddle1
								{
									OFFSET -3.168106 0.246593 1.001030
									CHANNELS 3 Zrotation Yrotation Xrotation
									JOINT RightHandMiddle2
									{
										OFFSET -6.180830 -0.258835 -1.000896
										CHANNELS 3 Zrotation Yrotation Xrotation
										JOINT RightHandMiddle3
										{
											OFFSET -4.348905 -0.000001 -0.000000
											CHANNELS 3 Zrotation Yrotation Xrotation
											JOINT RightHandMiddle4
											{
												OFFSET -3.000243 -0.000004 -0.000003
												CHANNELS 3 Zrotation Yrotation Xrotation
												JOINT RightHandMiddleEnd
												{
													OFFSET -2.302517 -0.294370 -0.031707
													CHANNELS 3 Zrotation Yrotation Xrotation
													End Site
													{
														OFFSET 0.000000 0.000000 0.000000
													}
												}
											}
										}
									}
								}
								JOINT RightHandRing1
								{
									OFFSET -2.885693 -0.067953 -0.308858
									CHANNELS 3 Zrotation Yrotation Xrotation
									JOINT RightHandRing2
									{
										OFFSET -5.854198 -0.486132 -1.373732
										CHANNELS 3 Zrotation Yrotation Xrotation
										JOINT RightHandRing3
										{
											OFFSET -4.338813 -0.000004 -0.000001
											CHANNELS 3 Zrotation Yrotation Xrotation
											JOINT RightHandRing4
											{
												OFFSET -2.654905 -0.000004 0.000003
												CHANNELS 3 Zrotation Yrotation Xrotation
												JOINT RightHandRingEnd
												{
													OFFSET -1.933569 0.077523 -0.000052
													CHANNELS 3 Zrotation Yrotation Xrotation
													End Site
													{
														OFFSET 0.000000 0.000000 0.000000
													}
												}
											}
										}
									}
								}
								JOINT RightHandPinky1
								{
									OFFSET -2.866429 -0.342798 -1.584146
									CHANNELS 3 Zrotation Yrotation Xrotation
									JOINT RightHandPinky2
									{
										OFFSET -5.091370 -1.332054 -1.772385
										CHANNELS 3 Zrotation Yrotation Xrotation
										JOINT RightHandPinky3
										{
											OFFSET -3.062665 -0.000007 0.000000
											CHANNELS 3 Zrotation Yrotation Xrotation
											JOINT RightHandPinky4
											{
												OFFSET -1.546527 0.000007 -0.000003
												CHANNELS 3 Zrotation Yrotation Xrotation
												JOINT RightHandPinkyEnd
												{
													OFFSET -1.945122 -0.157721 0.057211
													CHANNELS 3 Zrotation Yrotation Xrotation
													End Site
													{
														OFFSET 0.000000 0.000000 0.000000
													}
												}
											}
										}
									}
								}
							}
						}
					}
				}
			}
		}
	}
	JOINT LeftLeg
	{
		OFFSET 10.043214 -8.434526 2.595655
		CHANNELS 3 Zrotation Yrotation Xrotation
		JOINT LeftShin
		{
			OFFSET -0.000001 -43.221752 -0.802913
			CHANNELS 3 Zrotation Yrotation Xrotation
			JOINT LeftFoot
			{
				OFFSET 0.000001 -42.155094 -3.481524
				CHANNELS 3 Zrotation Yrotation Xrotation
				JOINT LeftToeBase
				{
					OFFSET -0.000000 -5.059475 13.231529
					CHANNELS 3 Zrotation Yrotation Xrotation
					JOINT LeftToeEnd
					{
						OFFSET -0.009606 -1.647615 6.513017
						CHANNELS 3 Zrotation Yrotation Xrotation
						End Site
						{
							OFFSET 0.000000 0.000000 0.000000
						}
					}
				}
			}
		}
	}
	JOINT RightLeg
	{
		OFFSET -10.047277 -8.295259 2.620317
		CHANNELS 3 Zrotation Yrotation Xrotation
		JOINT RightShin
		{
			OFFSET -0.000000 -43.362209 -0.805555
			CHANNELS 3 Zrotation Yrotation Xrotation
			JOINT RightFoot
			{
				OFFSET 0.000002 -42.117393 -3.478399
				CHANNELS 3 Zrotation Yrotation Xrotation
				JOINT RightToeBase
				{
					OFFSET -0.000001 -5.079609 13.284198
					CHANNELS 3 Zrotation Yrotation Xrotation
					JOINT RightToeEnd
					{
						OFFSET 0.009532 -1.634384 6.460591
						CHANNELS 3 Zrotation Yrotation Xrotation
						End Site
						{
							OFFSET 0.000000 0.000000 0.000000
						}
					}
				}
			}
		}
	}
}
MOTION
Frames: 4
Frame Time: 0.033333
3.226517 90.623573 2.270530 2.898124 0.158203 5.780602 -1.473906 0.561689 2.050762 -1.057591 0.428757 -3.754732 -3.414484 -0.712000 12.376599 -4.262835 5.263159 9.300773 3.125556 12.394655 -3.101839 -4.406422 14.224524 -12.483127 0.000077 -0.000022 0.000006 0.013549 -0.067656 -0.037242 0.761940 -3.812277 -10.723617 -0.747407 3.691574 -10.681173 3.420575 -14.512845 8.997452 -22.118366 -29.256239 -52.014267 -177.531601 -74.819756 178.641922 3.865036 -7.570248 4.228453 -5.882102 9.861277 0.702589 -10.936859 -0.360574 7.156197 -0.000000 8.774813 -0.000002 -15.885319 17.513107 5.877099 -1.844030 2.498502 -2.507275 -10.163589 4.678937 4.621106 -20.975992 -0.000004 0.000004 -21.226250 2.451691 -3.593991 0.000001 -0.000007 -0.000002 -1.362680 2.240795 -0.746323 -21.334892 0.584909 3.008322 -13.821194 -0.000002 0.000003 -23.887129 -0.249077 -0.839481 -60.352875 2.600923 -1.645023 -0.294024 1.679687 0.833255 -14.218194 0.093215 1.300580 -34.211998 -0.287565 0.967169 -20.033176 0.964536 1.212840 -0.000000 0.000001 -0.000000 -3.440384 0.788231 0.501655 -15.928167 -3.167305 2.999705 -6.338817 0.000000 0.000003 -18.123411 3.648176 -4.905659 -0.000004 0.000001 -0.000001 -6.542741 14.390119 7.014163 55.633537 50.239445 -8.514879 -179.531464 45.178974 179.961578 10.577894 4.701595 12.433317 2.243540 -5.255033 -3.180155 14.282875 -0.826595 6.952496 -0.000001 -12.690591 0.000002 16.828886 -17.475758 2.331185 1.665663 -1.955920 -2.878296 4.727795 -4.170584 4.993918 11.020510 0.000002 -0.000001 12.109031 -3.735711 -2.866779 0.000000 -0.000000 -0.000000 1.291985 -1.928548 -1.498088 14.800107 0.567467 3.865604 14.242553 -1.341736 -6.660649 19.631935 0.143924 -0.648244 51.524712 -0.327987 -5.848127 0.353028 -1.511149 -0.031940 20.222767 3.684304 2.316628 18.787245 0.000002 -0.000000 10.751610 -0.479868 1.397904 0.000000 -0.000000 -0.000000 3.273804 0.305947 -0.580110 21.486790 11.830361 2.266132 8.162916 0.000001 0.000000 18.399050 -3.798982 -4.940567 0.000003 0.000000 -0.000001 13.156384 23.803255 -28.640022 -0.465012 -0.956322 40.407112 -18.711634 -5.844804 -9.244329 1.588390 -1.748871 -1.238289 0.000000 -0.000001 0.000002 -19.594765 -16.419479 -20.974251 0.311901 0.747842 43.528027 20.576284 0.432892 -22.566477 -1.424467 0.998240 -1.533365 -0.000000 0.000001 -0.000001 
3.229107 90.668068 2.592209 3.024547 0.276621 5.990057 -1.498083 0.578977 2.105338 -1.007193 0.415063 -3.740881 -3.467685 -0.776519 12.430991 -4.384096 5.247362 8.843972 3.116040 12.446696 -3.076417 -4.491586 14.404123 -12.259491 0.000077 -0.000022 0.000006 0.024012 -0.074526 -0.034204 0.766873 -3.812975 -10.732994 -0.731092 3.685241 -10.696781 3.605990 -14.678974 8.838302 -22.112108 -28.976816 -51.839043 -178.818375 -74.852638 179.899094 3.931906 -7.895526 4.133030 -5.882101 9.861277 0.702589 -10.936858 -0.360574 7.156196 0.000000 8.774812 -0.000000 -16.045349 17.511869 5.921305 -1.844033 2.498503 -2.507274 -10.163589 4.678939 4.621103 -20.975994 -0.000004 0.000003 -21.226255 2.451693 -3.593993 0.000000 -0.000006 -0.000000 -1.362681 2.240795 -0.746322 -21.334887 0.584910 3.008320 -13.821197 -0.000001 0.000002 -23.887133 -0.249079 -0.839481 -60.559013 2.496358 -1.530921 -0.294024 1.679685 0.833255 -14.218195 0.093214 1.300579 -34.212006 -0.287565 0.967171 -20.033180 0.964532 1.212843 -0.000000 0.000001 -0.000002 -3.440384 0.788232 0.501653 -15.928167 -3.167304 2.999703 -6.338818 0.000001 0.000001 -18.123415 3.648173 -4.905663 -0.000004 0.000002 -0.000001 -6.699536 14.412267 6.872833 55.495468 50.393913 -8.921884 -179.608887 44.983242 179.988434 10.666911 5.024795 12.023717 2.243540 -5.255033 -3.180156 14.282875 -0.826593 6.952495 -0.000001 -12.690591 0.000000 16.801567 -17.526663 2.386371 1.665665 -1.955920 -2.878296 4.727794 -4.170584 4.993918 11.020513 0.000003 -0.000001 12.109033 -3.735710 -2.866780 0.000000 -0.000000 -0.000000 1.291984 -1.928548 -1.498088 14.800109 0.567468 3.865601 14.242553 -1.341735 -6.660648 19.631939 0.143926 -0.648244 51.448265 -0.344730 -5.815633 0.353027 -1.511149 -0.031940 20.222767 3.684307 2.316628 18.787243 0.000004 -0.000001 10.751611 -0.479867 1.397904 0.000000 -0.000000 -0.000000 3.273802 0.305947 -0.580110 21.486788 11.830364 2.266130 8.162916 0.000000 -0.000001 18.399052 -3.798978 -4.940568 0.000003 -0.000000 -0.000001 13.035948 23.414156 -28.525513 -0.470645 -0.928527 40.130096 -18.614174 -5.416201 -9.524839 1.586180 -1.777111 -1.313786 0.000000 0.000000 0.000002 -19.719002 -16.561419 -20.788929 0.303141 0.777333 43.289600 20.866676 0.518881 -22.663042 -1.429999 0.997661 -1.759721 0.000000 0.000000 -0.000001 
3.399493 90.651360 3.105473 3.195795 0.368443 6.256991 -1.527388 0.588793 2.123486 -0.991904 0.379883 -3.758294 -3.511597 -0.845296 12.474523 -4.477292 5.254687 8.420752 3.096527 12.506570 -3.073056 -4.593114 14.516489 -12.065138 0.000076 -0.000022 0.000006 0.029205 -0.097575 -0.041475 0.767322 -3.859056 -10.766794 -0.718977 3.650584 -10.733851 3.801585 -14.854590 8.672001 -21.891157 -28.639357 -52.133533 -179.108932 -74.937172 -179.871872 3.944380 -8.045184 4.052363 -5.882099 9.861279 0.702591 -10.936858 -0.360576 7.156198 0.000001 8.774815 -0.000002 -16.026461 17.426498 5.938772 -1.844031 2.498501 -2.507274 -10.163591 4.678939 4.621104 -20.975996 -0.000003 0.000003 -21.226254 2.451693 -3.593995 0.000000 -0.000007 -0.000000 -1.362681 2.240798 -0.746323 -21.334892 0.584906 3.008318 -13.821197 -0.000001 0.000002 -23.887131 -0.249081 -0.839482 -60.665920 2.403594 -1.472801 -0.294025 1.679687 0.833255 -14.218192 0.093215 1.300579 -34.212002 -0.287566 0.967169 -20.033180 0.964533 1.212842 -0.000001 -0.000000 -0.000001 -3.440384 0.788232 0.501655 -15.928171 -3.167308 2.999704 -6.338817 -0.000002 0.000003 -18.123415 3.648176 -4.905662 -0.000004 0.000001 -0.000001 -6.872347 14.374790 6.595075 55.337376 50.519386 -9.250778 -179.614212 44.914150 -179.980804 10.517619 5.333904 11.621444 2.243540 -5.255032 -3.180155 14.282877 -0.826592 6.952496 -0.000003 -12.690588 -0.000000 16.724894 -17.623543 2.485179 1.665667 -1.955920 -2.878297 4.727793 -4.170582 4.993917 11.020514 0.000003 -0.000001 12.109031 -3.735708 -2.866779 0.000000 -0.000000 -0.000000 1.291983 -1.928547 -1.498088 14.800111 0.567469 3.865603 14.242553 -1.341734 -6.660647 19.631941 0.143927 -0.648243 51.294247 -0.432466 -5.851053 0.353028 -1.511149 -0.031940 20.222771 3.684308 2.316628 18.787245 0.000006 -0.000001 10.751610 -0.479867 1.397904 0.000000 0.000000 0.000000 3.273805 0.305947 -0.580110 21.486790 11.830365 2.266131 8.162917 0.000002 -0.000000 18.399054 -3.798977 -4.940567 0.000003 0.000000 -0.000001 12.776776 23.220856 -28.508347 -0.465661 -0.881648 40.217110 -18.447239 -5.253016 -10.080701 1.584063 -1.792732 -1.362206 0.000000 -0.000000 0.000002 -20.060043 -16.725864 -20.500956 0.320795 0.794487 43.012421 21.219530 0.626426 -22.803654 -1.426685 0.992930 -1.935237 0.000000 -0.000001 -0.000001 
3.412871 90.580330 3.367107 3.422546 0.411160 6.644420 -1.567745 0.583107 2.061852 -0.991179 0.324409 -3.783750 -3.538446 -0.941893 12.441847 -4.589527 5.257450 7.939661 3.031997 12.564091 -3.081974 -4.642426 14.571930 -11.886418 0.000077 -0.000023 0.000006 0.030159 -0.097109 -0.045746 0.755434 -3.838394 -10.773748 -0.713137 3.670735 -10.743229 3.880914 -15.049585 8.541077 -21.341604 -28.079473 -52.872894 -178.561935 -75.136642 179.487793 4.049910 -8.233830 3.966328 -5.882102 9.861281 0.702588 -10.936861 -0.360573 7.156195 0.000000 8.774813 -0.000002 -15.945272 17.350094 5.933990 -1.844032 2.498503 -2.507276 -10.163591 4.678939 4.621103 -20.975994 -0.000003 0.000002 -21.226254 2.451695 -3.593996 0.000000 -0.000008 -0.000002 -1.362680 2.240796 -0.746323 -21.334892 0.584908 3.008318 -13.821197 -0.000002 0.000002 -23.887131 -0.249079 -0.839482 -60.628868 2.372127 -1.490139 -0.294026 1.679685 0.833255 -14.218192 0.093217 1.300579 -34.212006 -0.287566 0.967167 -20.033180 0.964534 1.212841 -0.000000 0.000001 -0.000001 -3.440386 0.788233 0.501657 -15.928167 -3.167307 2.999703 -6.338818 -0.000002 0.000001 -18.123413 3.648177 -4.905663 -0.000004 0.000002 -0.000002 -7.002596 14.187250 6.243836 55.257988 50.757542 -9.610868 -179.756226 44.924530 179.942337 10.265654 5.565524 10.791588 2.243540 -5.255033 -3.180155 14.282875 -0.826593 6.952496 -0.000002 -12.690592 -0.000000 16.578312 -17.728273 2.629861 1.665666 -1.955920 -2.878297 4.727790 -4.170582 4.993917 11.020510 0.000003 -0.000001 12.109029 -3.735710 -2.866780 -0.000000 0.000000 0.000000 1.291985 -1.928548 -1.498089 14.800107 0.567468 3.865602 14.242551 -1.341734 -6.660651 19.631937 0.143927 -0.648244 51.155396 -0.494736 -5.827116 0.353027 -1.511149 -0.031940 20.222763 3.684306 2.316627 18.787245 0.000005 -0.000001 10.751610 -0.479868 1.397904 -0.000000 0.000000 0.000000 3.273803 0.305947 -0.580109 21.486788 11.830363 2.266131 8.162916 0.000002 0.000000 18.399050 -3.798979 -4.940567 0.000003 -0.000001 -0.000001 12.430836 23.218081 -28.777132 -0.449421 -0.824040 40.223358 -18.252558 -5.147387 -10.448065 1.583301 -1.777434 -1.372285 0.000000 0.000000 0.000002 -20.274696 -16.950550 -20.791098 0.337059 0.825453 43.232311 21.436581 0.672586 -23.034321 -1.420739 1.023607 -2.024832 -0.000000 -0.000000 -0.000001 
